<svg version="1.1" id="Layer_1" xmlns="http://www.w3.org/2000/svg" xmlns:xlink="http://www.w3.org/1999/xlink" x="0px" y="0px"
	 viewBox="0 0 1792 1792" style="enable-background:new 0 0 1792 1792;" xml:space="preserve">
<path d="M1115.7,909.1c0,106.9-22.4,202.1-67.1,285.6c-44.7,83.5-108.4,148.7-191.1,195.8s-177.5,70.5-284.4,70.5
	c-76.6,0-149.8-14.9-219.7-44.7c-69.9-29.8-130-69.9-180.3-120.2c-50.4-50.4-90.4-110.5-120.2-180.3C23,1045.8,8.1,972.6,8.1,896
	S23,746.2,52.8,676.3s69.9-130,120.2-180.3s110.5-90.4,180.3-120.2s143.1-44.7,219.7-44.7c147,0,273.1,49.3,378.4,148L798.1,626.2
	C738,568.2,663,539.2,573.1,539.2c-63.2,0-121.6,15.9-175.3,47.8c-53.7,31.9-96.2,75.1-127.6,129.9c-31.3,54.7-47,114.5-47,179.2
	s15.7,124.5,47,179.2s73.9,98,127.6,129.9c53.7,31.9,112.1,47.8,175.3,47.8c42.6,0,81.8-5.9,117.5-17.7
	c35.7-11.8,65.1-26.6,88.2-44.3c23.1-17.7,43.3-37.9,60.5-60.5c17.2-22.6,29.8-43.9,37.8-64c8-20,13.5-39.1,16.6-57H573.1V815.1
	h533.3C1112.6,847.4,1115.7,878.8,1115.7,909.1z M1783.9,815.1v161.9h-161.1V1138h-161.9V976.9h-161.1V815.1h161.1V654h161.9v161.1
	H1783.9z"/>
</svg>
